name C:/MyDriveSym/Projects/mobilecap/Data\Session20210820_0002\mocap\ForceDataProcessed\walking3_forces.mot
datacolumns 19
datarows 29
range 0.35200000 0.36600000
endheader 
time	R_ground_force_vx	R_ground_force_vy	R_ground_force_vz	R_ground_force_px	R_ground_force_py	R_ground_force_pz	R_ground_torque_x	R_ground_torque_y	R_ground_torque_z	L_ground_force_vx	L_ground_force_vy	L_ground_force_vz	L_ground_force_px	L_ground_force_py	L_ground_force_pz	L_ground_torque_x	L_ground_torque_y	L_ground_torque_z	
          0.35200000	          3.01852200	        665.28281300	        -24.30288700	          0.16434000	          0.00600000	         -0.12482800	          0.00000000	         -1.84269100	          0.00000000	          0.00000000	          0.00000000	          0.00000000	          0.71741800	          0.00000000	         -0.18202100	          0.00000000	          0.00000000	          0.00000000	
          0.35250000	          3.19600800	        665.37731600	        -24.33185000	          0.16454600	          0.00600000	         -0.12476100	          0.00000000	         -1.86071900	          0.00000000	          0.00000000	          0.00000000	          0.00000000	          0.71741800	          0.00000000	         -0.18202100	          0.00000000	          0.00000000	          0.00000000	
          0.35300000	          3.37278900	        665.47648100	        -24.36151500	          0.16475200	          0.00600000	         -0.12469500	          0.00000000	         -1.87875300	          0.00000000	          0.00000000	          0.00000000	          0.00000000	          0.71741800	          0.00000000	         -0.18202100	          0.00000000	          0.00000000	          0.00000000	
          0.35350000	          3.54887400	        665.58031000	        -24.39187900	          0.16496000	          0.00600000	         -0.12462900	          0.00000000	         -1.89679300	          0.00000000	          0.00000000	          0.00000000	          0.00000000	          0.71741800	          0.00000000	         -0.18202100	          0.00000000	          0.00000000	          0.00000000	
          0.35400000	          3.72427100	        665.68880400	        -24.42293800	          0.16516700	          0.00600000	         -0.12456300	          0.00000000	         -1.91483700	          0.00000000	          0.00000000	          0.00000000	          0.00000000	          0.71741800	          0.00000000	         -0.18202100	          0.00000000	          0.00000000	          0.00000000	
          0.35450000	          3.89898900	        665.80196600	        -24.45468800	          0.16537600	          0.00600000	         -0.12449700	          0.00000000	         -1.93288500	          0.00000000	          0.00000000	          0.00000000	          0.00000000	          0.71741800	          0.00000000	         -0.18202100	          0.00000000	          0.00000000	          0.00000000	
          0.35500000	          4.07303700	        665.91979700	        -24.48712500	          0.16558500	          0.00600000	         -0.12443200	          0.00000000	         -1.95093800	          0.00000000	          0.00000000	          0.00000000	          0.00000000	          0.71741800	          0.00000000	         -0.18202100	          0.00000000	          0.00000000	          0.00000000	
          0.35550000	          4.24642300	        666.04230000	        -24.52024300	          0.16579500	          0.00600000	         -0.12436600	          0.00000000	         -1.96899300	          0.00000000	          0.00000000	          0.00000000	          0.00000000	          0.71741800	          0.00000000	         -0.18202100	          0.00000000	          0.00000000	          0.00000000	
          0.35600000	          4.41915700	        666.16947600	        -24.55404000	          0.16600600	          0.00600000	         -0.12430100	          0.00000000	         -1.98705100	          0.00000000	          0.00000000	          0.00000000	          0.00000000	          0.71741800	          0.00000000	         -0.18202100	          0.00000000	          0.00000000	          0.00000000	
          0.35650000	          4.59124700	        666.30132800	        -24.58850900	          0.16621700	          0.00600000	         -0.12423600	          0.00000000	         -2.00511100	          0.00000000	          0.00000000	          0.00000000	          0.00000000	          0.71741800	          0.00000000	         -0.18202100	          0.00000000	          0.00000000	          0.00000000	
          0.35700000	          4.76270200	        666.43785700	        -24.62364800	          0.16642900	          0.00600000	         -0.12417100	          0.00000000	         -2.02317200	          0.00000000	          0.00000000	          0.00000000	          0.00000000	          0.71741800	          0.00000000	         -0.18202100	          0.00000000	          0.00000000	          0.00000000	
          0.35750000	          4.93353000	        666.57906500	        -24.65945100	          0.16664200	          0.00600000	         -0.12410600	          0.00000000	         -2.04123400	          0.00000000	          0.00000000	          0.00000000	          0.00000000	          0.71741800	          0.00000000	         -0.18202100	          0.00000000	          0.00000000	          0.00000000	
          0.35800000	          5.10374200	        666.72495500	        -24.69591400	          0.16685600	          0.00600000	         -0.12404200	          0.00000000	         -2.05929700	          0.00000000	          0.00000000	          0.00000000	          0.00000000	          0.71741800	          0.00000000	         -0.18202100	          0.00000000	          0.00000000	          0.00000000	
          0.35850000	          5.27334500	        666.87552800	        -24.73303200	          0.16707000	          0.00600000	         -0.12397700	          0.00000000	         -2.07735900	          0.00000000	          0.00000000	          0.00000000	          0.00000000	          0.71741800	          0.00000000	         -0.18202100	          0.00000000	          0.00000000	          0.00000000	
          0.35900000	          5.44234800	        667.03078800	        -24.77079900	          0.16728500	          0.00600000	         -0.12391300	          0.00000000	         -2.09542100	          0.00000000	          0.00000000	          0.00000000	          0.00000000	          0.71741800	          0.00000000	         -0.18202100	          0.00000000	          0.00000000	          0.00000000	
          0.35950000	          5.61076100	        667.19073500	        -24.80921300	          0.16750000	          0.00600000	         -0.12384900	          0.00000000	         -2.11348100	          0.00000000	          0.00000000	          0.00000000	          0.00000000	          0.71741800	          0.00000000	         -0.18202100	          0.00000000	          0.00000000	          0.00000000	
          0.36000000	          5.77859300	        667.35537300	        -24.84826600	          0.16771600	          0.00600000	         -0.12378500	          0.00000000	         -2.13154000	          0.00000000	          0.00000000	          0.00000000	          0.00000000	          0.71741800	          0.00000000	         -0.18202100	          0.00000000	          0.00000000	          0.00000000	
          0.36050000	          5.94585200	        667.52470200	        -24.88795500	          0.16793300	          0.00600000	         -0.12372100	          0.00000000	         -2.14959600	          0.00000000	          0.00000000	          0.00000000	          0.00000000	          0.71741800	          0.00000000	         -0.18202100	          0.00000000	          0.00000000	          0.00000000	
          0.36100000	          6.11254700	        667.69872700	        -24.92827400	          0.16815000	          0.00600000	         -0.12365800	          0.00000000	         -2.16764900	          0.00000000	          0.00000000	          0.00000000	          0.00000000	          0.71741800	          0.00000000	         -0.18202100	          0.00000000	          0.00000000	          0.00000000	
          0.36150000	          6.27868800	        667.87744800	        -24.96921900	          0.16836900	          0.00600000	         -0.12359500	          0.00000000	         -2.18569800	          0.00000000	          0.00000000	          0.00000000	          0.00000000	          0.71741800	          0.00000000	         -0.18202100	          0.00000000	          0.00000000	          0.00000000	
          0.36200000	          6.44428300	        668.06086800	        -25.01078400	          0.16858700	          0.00600000	         -0.12353200	          0.00000000	         -2.20374400	          0.00000000	          0.00000000	          0.00000000	          0.00000000	          0.71741800	          0.00000000	         -0.18202100	          0.00000000	          0.00000000	          0.00000000	
          0.36250000	          6.60934100	        668.24899000	        -25.05296300	          0.16880700	          0.00600000	         -0.12346900	          0.00000000	         -2.22178500	          0.00000000	          0.00000000	          0.00000000	          0.00000000	          0.71741800	          0.00000000	         -0.18202100	          0.00000000	          0.00000000	          0.00000000	
          0.36300000	          6.77387300	        668.44181500	        -25.09575200	          0.16902700	          0.00600000	         -0.12340600	          0.00000000	         -2.23982000	          0.00000000	          0.00000000	          0.00000000	          0.00000000	          0.71741800	          0.00000000	         -0.18202100	          0.00000000	          0.00000000	          0.00000000	
          0.36350000	          6.93788500	        668.63934600	        -25.13914600	          0.16924800	          0.00600000	         -0.12334400	          0.00000000	         -2.25785000	          0.00000000	          0.00000000	          0.00000000	          0.00000000	          0.71741800	          0.00000000	         -0.18202100	          0.00000000	          0.00000000	          0.00000000	
          0.36400000	          7.10138900	        668.84158500	        -25.18313900	          0.16946900	          0.00600000	         -0.12328200	          0.00000000	         -2.27587400	          0.00000000	          0.00000000	          0.00000000	          0.00000000	          0.71741800	          0.00000000	         -0.18202100	          0.00000000	          0.00000000	          0.00000000	
          0.36450000	          7.26439200	        669.04853400	        -25.22772500	          0.16969100	          0.00600000	         -0.12322000	          0.00000000	         -2.29389100	          0.00000000	          0.00000000	          0.00000000	          0.00000000	          0.71741800	          0.00000000	         -0.18202100	          0.00000000	          0.00000000	          0.00000000	
          0.36500000	          7.42690400	        669.26019600	        -25.27290000	          0.16991400	          0.00600000	         -0.12315800	          0.00000000	         -2.31190100	          0.00000000	          0.00000000	          0.00000000	          0.00000000	          0.71741800	          0.00000000	         -0.18202100	          0.00000000	          0.00000000	          0.00000000	
          0.36550000	          7.58893400	        669.47657300	        -25.31865800	          0.17013700	          0.00600000	         -0.12309700	          0.00000000	         -2.32990300	          0.00000000	          0.00000000	          0.00000000	          0.00000000	          0.71741800	          0.00000000	         -0.18202100	          0.00000000	          0.00000000	          0.00000000	
          0.36600000	          7.75049100	        669.69766700	        -25.36499300	          0.17036100	          0.00600000	         -0.12303600	          0.00000000	         -2.34789600	          0.00000000	          0.00000000	          0.00000000	          0.00000000	          0.71741800	          0.00000000	         -0.18202100	          0.00000000	          0.00000000	          0.00000000	
